<svg width="24" height="24" viewBox="0 0 24 24" fill="none" xmlns="http://www.w3.org/2000/svg">
<path d="M10 12.7H14M3.30004 7.60005H20.7M3.60004 7.10005L4.90004 5.35005L6.20004 3.60005C6.28379 3.41641 6.41801 3.26034 6.58704 3.15005C6.77325 3.04351 6.98568 2.99153 7.20004 3.00005H16.9C17.0998 3.00098 17.2966 3.04821 17.475 3.13805C17.6457 3.21989 17.7921 3.34463 17.9 3.50005L19.2 5.25005L20.5 7.00005C20.5921 7.09659 20.653 7.21851 20.675 7.35005C20.6949 7.4656 20.7033 7.58284 20.7 7.70005V21H3.30004V7.80005C3.29704 7.66716 3.32262 7.53519 3.37504 7.41305C3.4298 7.29556 3.50612 7.18939 3.60004 7.10005Z" stroke="#A3A3A3" stroke-width="2" stroke-linecap="round" stroke-linejoin="round"/>
</svg>
