<svg width="24" height="24" viewBox="0 0 24 24" fill="none" xmlns="http://www.w3.org/2000/svg">
<path d="M3.3999 6.20002H20.5999M5.2999 6.20002V19C5.29396 19.5221 5.48622 20.0271 5.8379 20.413C6.01162 20.6002 6.22247 20.7491 6.45699 20.8502C6.69151 20.9512 6.94454 21.0023 7.1999 21H16.7999C17.0488 20.9958 17.2943 20.9416 17.5219 20.8408C17.7495 20.74 17.9545 20.5945 18.1249 20.413C18.4922 20.0342 18.6983 19.5277 18.6999 19V6.20002M9.9999 15.6V11.6M13.9999 11.6V15.6M9.3999 6.20002V3.90002C9.39337 3.66934 9.46844 3.44377 9.6119 3.26302C9.68404 3.17803 9.7743 3.11029 9.87605 3.06478C9.97781 3.01927 10.0885 2.99714 10.1999 3.00002H13.7999C13.9112 2.99707 14.0217 3.01918 14.1233 3.0647C14.2249 3.11022 14.315 3.178 14.3869 3.26302C14.5311 3.44342 14.6066 3.66916 14.5999 3.90002V6.20002" stroke="#A3A3A3" stroke-width="1.66667" stroke-linecap="round" stroke-linejoin="round"/>
</svg>
