<svg width="24" height="24" viewBox="0 0 24 24" fill="none" xmlns="http://www.w3.org/2000/svg">
<path d="M18.8873 13.4121V18.8121C18.8818 19.3939 18.6483 19.9503 18.2369 20.3617C17.8255 20.7731 17.2691 21.0066 16.6873 21.0121H5.1873C4.60552 21.0066 4.04912 20.7731 3.63772 20.3617C3.22632 19.9503 2.99278 19.3939 2.9873 18.8121V7.31311C2.99252 6.73125 3.22598 6.1747 3.63744 5.76325C4.04889 5.35179 4.60544 5.11833 5.1873 5.11311H10.5873M20.4773 3.52311C20.2039 3.24044 19.8431 3.05828 19.4533 3.00611C19.3652 2.99378 19.2763 2.98743 19.1873 2.98711C18.7014 2.98342 18.2339 3.17258 17.8873 3.51311L14.0873 7.31311L10.2873 11.1131V13.7131H12.8873L16.6873 9.91311L20.4873 6.11311C20.6584 5.95917 20.7941 5.76991 20.8849 5.5584C20.9757 5.3469 21.0195 5.1182 21.0133 4.88811C21.0179 4.38092 20.8258 3.89167 20.4773 3.52311Z" stroke="#A3A3A3" stroke-width="2" stroke-linecap="round" stroke-linejoin="round"/>
</svg>
