<svg width="24" height="24" viewBox="0 0 24 24" fill="none" xmlns="http://www.w3.org/2000/svg">
<path d="M18.6998 17.9H5.2998M6.5998 17.9V10.4C6.5998 9.69086 6.73948 8.98867 7.01086 8.33351C7.28223 7.67835 7.67999 7.08306 8.18143 6.58162C8.68286 6.08019 9.27816 5.68243 9.93331 5.41105C10.5885 5.13967 11.2907 5 11.9998 5M11.9998 5C12.7089 5 13.4111 5.13967 14.0663 5.41105C14.7215 5.68243 15.3167 6.08019 15.8182 6.58162C16.3196 7.08306 16.7174 7.67835 16.9888 8.33351C17.2601 8.98867 17.3998 9.69086 17.3998 10.4V17.9M11.9998 5V3M9.9998 18.3C9.95364 18.3943 9.92388 18.4957 9.9118 18.6C9.90182 18.6997 9.89781 18.7998 9.8998 18.9C9.8998 19.1758 9.95412 19.4489 10.0597 19.7036C10.1652 19.9584 10.3199 20.1899 10.5149 20.3849C10.7099 20.5799 10.9414 20.7346 11.1962 20.8401C11.451 20.9457 11.724 21 11.9998 21C12.2756 21 12.5487 20.9457 12.8034 20.8401C13.0582 20.7346 13.2897 20.5799 13.4847 20.3849C13.6797 20.1899 13.8344 19.9584 13.94 19.7036C14.0455 19.4489 14.0998 19.1758 14.0998 18.9C14.1017 18.7955 14.0974 18.691 14.0868 18.587C14.072 18.4552 14.0428 18.3254 13.9998 18.2" stroke="#222222" stroke-width="2" stroke-linecap="round" stroke-linejoin="round"/>
</svg>
