<svg width="24" height="24" viewBox="0 0 24 24" fill="none" xmlns="http://www.w3.org/2000/svg">
<path d="M12.0002 3C12.81 3.00006 13.5946 3.28088 14.2205 3.79462C14.8464 4.30836 15.2749 5.02322 15.4328 5.81741C15.5907 6.61161 15.4683 7.43599 15.0866 8.15009C14.7048 8.86419 14.0873 9.42383 13.3392 9.73366C12.591 10.0435 11.7586 10.0843 10.9838 9.84923C10.2089 9.61413 9.53955 9.11763 9.08972 8.44433C8.63989 7.77103 8.43744 6.96259 8.51685 6.15675C8.59626 5.35092 8.95263 4.59755 9.52523 4.025C9.85003 3.69969 10.2358 3.4417 10.6606 3.26581C11.0853 3.08991 11.5405 2.99959 12.0002 3ZM18.2002 21C18.2288 18.9674 17.5874 16.9819 16.3752 15.35C15.8762 14.6478 15.2217 14.0704 14.4629 13.6628C13.704 13.2552 12.8612 13.0283 12.0002 13C11.1393 13.0283 10.2965 13.2552 9.5376 13.6628C8.77872 14.0704 8.12425 14.6478 7.62523 15.35C6.41303 16.9819 5.77169 18.9674 5.80023 21H18.2002Z" stroke="#222222" stroke-width="2" stroke-linecap="round" stroke-linejoin="round"/>
</svg>
